<svg xmlns="http://www.w3.org/2000/svg" viewBox="0 0 480 600" width="480" height="600" role="img"><defs>
    <linearGradient id="bg-classic-black-abaya" x1="0" y1="0" x2="0.4" y2="1">
      <stop offset="0%" stop-color="#e7e6ee"/>
      <stop offset="100%" stop-color="#b9b8c6"/>
    </linearGradient>
    <radialGradient id="glow-classic-black-abaya" cx="28%" cy="20%" r="75%">
      <stop offset="0%" stop-color="#ffffff" stop-opacity="0.55"/>
      <stop offset="55%" stop-color="#ffffff" stop-opacity="0.10"/>
      <stop offset="100%" stop-color="#ffffff" stop-opacity="0"/>
    </radialGradient>
    <linearGradient id="cloth-classic-black-abaya" x1="0.15" y1="0.1" x2="0.85" y2="0.95">
      <stop offset="0%" stop-color="#5a5866"/>
      <stop offset="55%" stop-color="#34323d"/>
      <stop offset="100%" stop-color="#181820"/>
    </linearGradient>
    <radialGradient id="floor-classic-black-abaya" cx="50%" cy="100%" r="60%">
      <stop offset="0%" stop-color="#000000" stop-opacity="0.18"/>
      <stop offset="100%" stop-color="#000000" stop-opacity="0"/>
    </radialGradient>
  </defs><rect width="480" height="600" fill="url(#bg-classic-black-abaya)"/>
    <rect width="480" height="600" fill="url(#glow-classic-black-abaya)"/>
    <ellipse cx="240" cy="560" rx="190" ry="46" fill="url(#floor-classic-black-abaya)"/>
    <path fill="url(#cloth-classic-black-abaya)" d="
      M240,120
      C214,120 198,128 190,150
      L150,196 C120,214 112,250 124,300 L156,300
      C146,372 124,470 112,556 L368,556
      C356,470 334,372 324,300 L356,300
      C368,250 360,214 330,196 L290,150
      C282,128 266,120 240,120 Z" />
    <path d="M240,120 C232,150 232,150 240,176 C248,150 248,150 240,120 Z" fill="#181820" fill-opacity="0.5"/>
    <path d="M240,182 L240,548" stroke="#181820" stroke-opacity="0.32" stroke-width="4"/>
    <path d="M196,210 C186,330 176,450 172,548" fill="none" stroke="#5a5866" stroke-opacity="0.35" stroke-width="6" stroke-linecap="round"/>
    <path d="M286,210 C296,330 306,450 310,548" fill="none" stroke="#181820" stroke-opacity="0.28" stroke-width="6" stroke-linecap="round"/>
    <path d="M150,210 C140,250 138,276 150,298" fill="none" stroke="#181820" stroke-opacity="0.25" stroke-width="5"/><path transform="translate(388,150) scale(1.1)" d="M0,-10 L2.4,-2.4 10,0 2.4,2.4 0,10 -2.4,2.4 -10,0 -2.4,-2.4 Z" fill="#c9a96e" fill-opacity="0.9"/><rect x="14" y="14" width="452" height="572" rx="22" fill="none" stroke="#c9a96e" stroke-opacity="0.45" stroke-width="1.5"/><g>
    <rect x="28" y="28" rx="13" width="70" height="26" fill="#000000" fill-opacity="0.18"/>
    <text x="42" y="45" font-family="Georgia, serif" font-size="13" letter-spacing="2" fill="#c9a96e">ABAYA</text>
  </g></svg>